<?xml version="1.0" standalone="no"?>
<!DOCTYPE svg PUBLIC "-//W3C//DTD SVG 20010904//EN"
 "http://www.w3.org/TR/2001/REC-SVG-20010904/DTD/svg10.dtd">
<svg version="1.0" xmlns="http://www.w3.org/2000/svg"
 width="200.000000pt" height="200.000000pt" viewBox="0 0 200.000000 200.000000"
 preserveAspectRatio="xMidYMid meet">

<g transform="translate(0.000000,200.000000) scale(0.100000,-0.100000)"
fill="#000000" stroke="none">
<path d="M1296 1800 c-28 -11 -59 -30 -70 -44 -12 -13 -32 -27 -46 -30 -33 -8
-119 -72 -127 -94 -3 -9 -11 -30 -18 -47 -29 -66 -27 -69 50 -76 48 -4 77 -2
91 7 25 15 92 114 131 192 14 30 37 60 50 69 27 18 31 43 6 43 -10 -1 -40 -10
-67 -20z m-19 -56 c-3 -3 -12 -4 -19 -1 -8 3 -5 6 6 6 11 1 17 -2 13 -5z"/>
<path d="M1017 1784 c-15 -8 -25 -19 -22 -24 14 -23 103 -1 113 28 5 17 -56
15 -91 -4z"/>
<path d="M935 1723 c-16 -8 -47 -36 -68 -60 -35 -41 -38 -50 -35 -96 3 -57 16
-66 88 -59 35 4 40 8 58 50 11 26 25 65 31 87 6 22 17 50 25 61 9 12 12 24 9
28 -12 11 -78 5 -108 -11z"/>
<path d="M1525 1642 c-16 -10 -36 -30 -44 -45 -11 -20 -17 -23 -30 -15 -14 8
-33 1 -92 -32 -41 -23 -92 -53 -114 -65 -37 -21 -41 -27 -49 -80 -6 -39 -5
-64 3 -82 10 -22 16 -24 47 -18 57 10 132 61 139 94 6 27 44 73 50 61 4 -8 73
78 101 126 14 24 24 50 22 59 -3 13 -7 13 -33 -3z m-79 -119 c-10 -10 -19 5
-10 18 6 11 8 11 12 0 2 -7 1 -15 -2 -18z"/>
<path d="M887 1459 c-58 -9 -76 -34 -83 -109 -7 -86 6 -108 82 -145 34 -16 80
-47 103 -67 23 -21 43 -38 46 -38 14 0 83 40 95 55 9 11 15 52 17 123 2 59 4
118 6 132 1 17 -5 28 -23 36 -29 14 -188 22 -243 13z"/>
<path d="M1480 1320 c-8 -5 -28 -10 -43 -10 -15 0 -30 -7 -33 -15 -4 -10 -15
-12 -34 -8 -28 5 -125 -21 -145 -39 -17 -15 -33 -106 -21 -118 19 -19 69 -10
131 25 76 42 89 57 81 90 -6 24 -5 25 13 15 17 -8 26 -5 56 21 19 17 35 35 35
40 0 12 -21 11 -40 -1z"/>
<path d="M1556 958 c-50 -58 -102 -151 -87 -156 7 -2 -5 -23 -28 -47 -47 -51
-53 -71 -49 -146 3 -52 4 -54 33 -57 18 -1 50 9 80 25 l50 28 12 80 c26 166
26 174 13 190 -10 13 -10 19 4 34 20 22 34 91 18 91 -6 0 -27 -19 -46 -42z
m-7 -105 c-26 -33 -40 -45 -45 -40 -3 3 7 17 23 31 32 30 41 34 22 9z"/>
<path d="M580 883 c-48 -17 -100 -47 -100 -57 0 -7 -17 -20 -37 -28 -78 -30
-123 -67 -144 -116 -11 -26 -23 -59 -26 -74 l-5 -28 80 0 81 0 33 43 c46 57
108 161 108 180 0 9 14 25 30 37 47 34 34 62 -20 43z"/>
<path d="M1802 870 c-6 -11 -12 -26 -12 -34 0 -8 -8 -21 -18 -28 -23 -16 -97
-107 -136 -167 -26 -40 -27 -47 -16 -80 18 -54 44 -104 55 -108 18 -5 112 91
124 126 6 19 11 58 11 88 0 36 5 60 15 70 12 11 15 32 13 81 -3 69 -15 86 -36
52z m-5 -122 c-3 -8 -6 -5 -6 6 -1 11 2 17 5 13 3 -3 4 -12 1 -19z"/>
<path d="M262 842 c-15 -15 -41 -34 -59 -41 -18 -7 -53 -35 -78 -62 -39 -42
-45 -54 -45 -92 0 -23 5 -48 12 -55 7 -7 35 -12 64 -12 52 0 52 0 73 46 12 25
25 60 28 77 3 18 15 45 25 60 15 21 17 31 9 41 -9 11 -6 15 16 21 60 15 71 45
17 45 -26 0 -43 -7 -62 -28z"/>
<path d="M1287 815 c-21 -44 -22 -74 -2 -81 21 -8 9 -23 -13 -17 -26 6 -39
-13 -51 -81 -15 -84 -14 -120 7 -145 l17 -21 50 33 50 33 -1 73 c-1 40 -7 76
-12 80 -6 3 -10 20 -9 36 2 61 -3 125 -11 125 -5 0 -16 -16 -25 -35z"/>
<path d="M748 690 c-17 -16 -38 -30 -46 -30 -20 0 -201 -97 -230 -123 -20 -19
-22 -29 -20 -92 3 -62 5 -70 24 -73 33 -5 130 43 150 73 10 15 23 48 30 73 7
26 13 37 13 25 1 -13 5 -23 10 -23 10 0 64 65 104 125 49 72 25 102 -35 45z
m-34 -65 c-4 -8 -8 -15 -10 -15 -2 0 -4 7 -4 15 0 8 4 15 10 15 5 0 7 -7 4
-15z m-27 -47 c-3 -7 -5 -2 -5 12 0 14 2 19 5 13 2 -7 2 -19 0 -25z"/>
<path d="M1897 633 c-4 -3 -7 -23 -7 -44 0 -28 5 -41 20 -49 17 -9 20 -8 20
13 0 36 -11 87 -20 87 -3 0 -10 -3 -13 -7z"/>
<path d="M1828 522 c-20 -20 -57 -54 -82 -76 -50 -42 -57 -68 -33 -119 28 -63
113 -37 159 48 31 57 39 146 14 171 -18 18 -14 19 -58 -24z"/>
<path d="M1460 509 c-41 -22 -85 -39 -97 -39 -38 0 -74 -41 -84 -94 -11 -58
-5 -68 60 -97 25 -11 64 -37 86 -58 60 -57 71 -61 124 -43 60 20 121 60 123
81 3 41 -6 80 -31 131 -16 30 -32 66 -36 80 -11 35 -44 80 -58 79 -7 -1 -46
-19 -87 -40z"/>
<path d="M149 532 c-30 -2 -53 -10 -64 -21 -18 -21 -36 -123 -28 -165 6 -27
53 -65 101 -80 13 -4 46 -28 73 -52 l50 -44 37 15 c67 28 82 54 82 149 0 46 3
103 6 127 5 40 4 46 -17 56 -25 12 -159 20 -240 15z"/>
<path d="M746 395 c-15 -8 -41 -15 -56 -15 -16 0 -30 -5 -32 -12 -2 -6 -26
-12 -54 -13 -27 0 -70 -10 -95 -22 -45 -20 -46 -22 -53 -74 -10 -73 6 -86 77
-59 90 34 165 97 137 115 -19 12 -10 22 18 18 19 -2 36 5 60 27 40 37 39 56
-2 35z"/>
</g>
</svg>
