<?xml version="1.0" standalone="no"?>
<!DOCTYPE svg PUBLIC "-//W3C//DTD SVG 20010904//EN"
 "http://www.w3.org/TR/2001/REC-SVG-20010904/DTD/svg10.dtd">
<svg version="1.0" xmlns="http://www.w3.org/2000/svg"
 width="200.000000pt" height="200.000000pt" viewBox="0 0 200.000000 200.000000"
 preserveAspectRatio="xMidYMid meet">

<g transform="translate(0.000000,200.000000) scale(0.100000,-0.100000)"
fill="#000000" stroke="none">
<path d="M780 1920 c-12 -7 -14 -29 -12 -107 3 -100 31 -384 39 -393 13 -14
21 37 26 172 10 225 9 312 -5 326 -14 14 -28 15 -48 2z"/>
<path d="M1184 1908 c-11 -18 -8 -413 4 -433 7 -14 10 -11 16 16 11 54 66 383
66 396 0 11 -8 14 -62 29 -9 3 -20 -1 -24 -8z"/>
<path d="M508 1814 c-33 -18 -32 7 -13 -347 13 -245 27 -347 45 -347 9 0 24
686 15 700 -8 13 -14 12 -47 -6z"/>
<path d="M1470 1768 c-2 -362 2 -634 10 -642 21 -21 38 106 50 359 6 143 13
268 16 277 3 11 -5 27 -22 43 -44 41 -54 34 -54 -37z"/>
<path d="M1150 1172 c-11 -54 -10 -63 10 -113 34 -84 37 -91 57 -142 12 -31
23 -46 33 -44 8 2 14 9 12 17 -2 8 -7 48 -12 89 -16 136 -47 239 -76 248 -6 2
-16 -21 -24 -55z"/>
<path d="M793 1193 c-30 -42 -53 -89 -69 -142 -29 -96 -15 -96 75 1 29 32 33
43 33 93 1 70 -12 87 -39 48z"/>
<path d="M815 1047 c-6 -6 -33 -39 -62 -72 -86 -100 -112 -228 -66 -325 11
-25 28 -62 36 -82 23 -55 45 -50 132 33 l74 72 -6 61 c-3 33 -15 95 -25 136
-11 41 -25 100 -32 130 -12 55 -31 72 -51 47z"/>
<path d="M1116 1038 c-2 -7 -11 -33 -20 -58 -17 -48 -75 -258 -83 -300 -4 -21
8 -39 62 -97 74 -81 97 -93 126 -67 34 30 79 144 79 198 0 18 -25 82 -59 151
-32 66 -63 133 -67 149 -10 32 -31 46 -38 24z"/>
<path d="M522 891 c-35 -48 -62 -100 -62 -121 0 -11 2 -20 4 -20 7 0 87 84 97
101 13 26 11 69 -4 69 -7 0 -23 -13 -35 -29z"/>
<path d="M1456 824 c-9 -26 -27 -62 -41 -80 -36 -48 -33 -64 13 -64 60 0 71
20 65 113 -3 42 -9 77 -13 77 -5 0 -15 -21 -24 -46z"/>
<path d="M507 751 c-20 -23 -43 -57 -52 -77 -18 -44 -20 -181 -3 -221 12 -29
95 -113 110 -113 33 0 127 90 128 122 0 30 -49 150 -77 186 -14 19 -31 57 -37
85 -6 28 -16 52 -22 54 -6 2 -27 -14 -47 -36z"/>
<path d="M1345 636 c-24 -24 -95 -164 -95 -186 0 -23 95 -140 113 -140 34 0
71 53 100 144 25 81 37 195 20 196 -5 1 -31 3 -60 6 -47 5 -55 3 -78 -20z"/>
<path d="M871 518 c-37 -35 -94 -86 -127 -114 -33 -29 -71 -72 -84 -97 l-24
-45 24 -51 c14 -30 50 -76 86 -111 75 -72 96 -75 209 -30 63 25 90 30 159 30
99 0 108 6 132 101 16 60 16 66 0 100 -10 21 -44 59 -76 87 -55 47 -113 109
-153 166 -31 45 -67 35 -146 -36z"/>
</g>
</svg>
