<?xml version="1.0" standalone="no"?>
<!DOCTYPE svg PUBLIC "-//W3C//DTD SVG 20010904//EN"
 "http://www.w3.org/TR/2001/REC-SVG-20010904/DTD/svg10.dtd">
<svg version="1.0" xmlns="http://www.w3.org/2000/svg"
 width="200.000000pt" height="200.000000pt" viewBox="0 0 200.000000 200.000000"
 preserveAspectRatio="xMidYMid meet">

<g transform="translate(0.000000,200.000000) scale(0.100000,-0.100000)"
fill="#000000" stroke="none">
<path d="M954 1646 c-3 -8 -5 -20 -3 -27 1 -8 1 -29 0 -46 -1 -31 -3 -33 -38
-33 -36 0 -64 -6 -158 -31 -48 -13 -57 -17 -165 -67 -91 -41 -198 -107 -295
-180 -83 -63 -255 -232 -255 -251 0 -26 240 -252 337 -319 165 -112 361 -195
495 -208 35 -4 69 -11 76 -17 6 -5 12 -31 12 -58 0 -26 4 -50 9 -53 16 -10 29
18 28 62 -1 26 4 46 12 51 7 5 43 11 81 14 70 6 204 46 300 90 190 88 403 256
528 419 11 14 1 28 -80 110 -107 109 -253 227 -352 286 -130 78 -297 137 -423
149 l-63 6 0 43 c0 23 -3 49 -6 58 -8 20 -33 21 -40 2z m-3 -198 c-5 -14 -18
-22 -37 -23 -103 -8 -192 -45 -258 -105 -46 -43 -88 -124 -116 -225 -16 -56
-19 -60 -46 -60 -32 0 -33 2 -16 92 5 29 21 75 35 103 32 62 17 64 -38 7 -36
-38 -42 -52 -55 -122 l-15 -80 -45 -3 c-70 -5 -80 -42 -12 -42 20 0 42 -4 48
-8 6 -4 17 -40 25 -81 9 -47 20 -78 31 -85 30 -18 40 3 27 60 -18 84 -17 109
7 112 12 2 29 -4 37 -13 15 -14 18 -14 41 0 17 11 42 15 87 13 l63 -3 14 -49
c19 -66 100 -149 163 -167 24 -7 48 -16 53 -20 15 -13 18 -103 4 -121 -12 -16
-17 -17 -71 -2 -32 8 -72 24 -90 34 -39 24 -67 26 -67 4 0 -20 74 -52 157 -68
70 -12 98 -35 76 -57 -10 -10 -29 -10 -85 0 -169 29 -322 98 -482 217 -110 83
-266 228 -266 248 0 14 128 139 190 187 25 18 47 37 50 40 12 16 188 123 243
149 88 41 213 82 277 89 69 9 81 5 71 -21z m219 2 c162 -44 302 -115 430 -217
30 -24 73 -58 95 -76 61 -48 155 -145 155 -160 0 -7 -30 -42 -67 -78 -221
-216 -495 -362 -719 -385 -53 -6 -62 -4 -68 12 -10 27 12 41 86 52 103 16 183
56 230 116 61 77 108 182 108 243 0 16 8 25 25 29 27 7 59 -12 49 -28 -3 -5
-12 -39 -20 -74 -7 -36 -22 -80 -34 -98 -23 -39 -25 -46 -8 -46 16 0 78 61 78
77 0 7 5 13 10 13 6 0 10 12 10 28 1 15 7 50 14 77 13 49 14 50 57 55 49 6 63
33 19 38 -69 7 -92 14 -83 23 20 20 -27 164 -50 156 -18 -6 -20 -49 -4 -111
l15 -56 -25 -7 c-15 -3 -35 -1 -45 6 -14 9 -23 9 -33 1 -8 -6 -43 -10 -85 -8
l-71 3 -18 53 c-28 82 -91 139 -185 167 -43 13 -41 7 -37 109 l1 39 50 -7 c28
-4 71 -18 95 -31 47 -27 89 -33 83 -12 -6 20 -93 58 -162 70 -53 9 -66 15 -66
29 0 25 73 24 170 -2z m-216 -127 c-2 -57 -3 -57 -41 -68 -44 -13 -110 -53
-136 -83 -10 -11 -29 -47 -42 -79 l-24 -58 -52 -3 c-29 -2 -63 -1 -75 2 -23 6
-23 7 -7 54 24 71 56 145 71 160 6 8 16 22 22 32 15 29 113 88 166 101 27 7
60 15 74 19 36 11 47 -9 44 -77z m109 -190 c47 -33 67 -69 67 -122 0 -96 -55
-151 -152 -151 -82 0 -148 60 -154 142 -8 122 137 202 239 131z m311 -152 c10
-16 -16 -114 -47 -179 -32 -67 -70 -103 -147 -142 -55 -28 -160 -54 -172 -42
-11 11 -14 114 -4 130 4 6 16 12 27 12 60 0 157 82 185 157 9 26 22 54 27 61
11 14 123 17 131 3z"/>
</g>
</svg>
